<?xml version="1.0" encoding="utf-8"?>
<!-- Svg Vector Icons : http://www.onlinewebfonts.com/icon -->
<!DOCTYPE svg PUBLIC "-//W3C//DTD SVG 1.1//EN" "http://www.w3.org/Graphics/SVG/1.1/DTD/svg11.dtd">
<svg version="1.1" xmlns="http://www.w3.org/2000/svg" xmlns:xlink="http://www.w3.org/1999/xlink" x="0px" y="0px" viewBox="0 0 1000 1000" enable-background="new 0 0 1000 1000" xml:space="preserve">
<metadata> Svg Vector Icons : http://www.onlinewebfonts.com/icon </metadata>
<g><g><path d="M500,79.4c232.8,0,420.6,187.8,420.6,420.6S732.8,920.6,500,920.6S79.4,732.8,79.4,500S267.2,79.4,500,79.4 M500,10C230.5,10,10,230.5,10,500c0,269.5,220.5,490,490,490c269.5,0,490-220.5,490-490C990,230.5,769.5,10,500,10L500,10z"/></g><polygon points="393.8,663.3 328.5,463.3 500,336.7 671.5,463.3 606.2,663.3 "/><polygon points="589.8,50.8 642.9,148.8 500,210.1 357.1,148.8 410.2,50.8 "/><polygon points="99.8,275.4 210.1,255 226.4,410.2 120.3,528.6 42.7,446.9 "/><polygon points="161.1,810.3 177.4,700.1 328.5,732.8 410.2,867.5 308.1,916.5 "/><polygon points="691.9,916.5 589.8,867.5 671.5,732.8 822.6,700.1 838.9,810.3 "/><polygon points="957.3,446.9 879.7,528.6 773.6,410.2 789.9,255 900.2,275.4 "/></g>
</svg>